<?xml version="1.0" standalone="no"?>
<!DOCTYPE svg PUBLIC "-//W3C//DTD SVG 20010904//EN"
 "http://www.w3.org/TR/2001/REC-SVG-20010904/DTD/svg10.dtd">
<svg version="1.0" xmlns="http://www.w3.org/2000/svg"
 width="551.000000pt" height="551.000000pt" viewBox="0 0 551.000000 551.000000"
 preserveAspectRatio="xMidYMid meet">
<metadata>
Created by potrace 1.14, written by Peter Selinger 2001-2017
</metadata>
<g transform="translate(0.000000,551.000000) scale(0.100000,-0.100000)"
fill="#000000" stroke="none">
<path d="M1425 4948 c-91 -10 -181 -38 -283 -87 -153 -75 -254 -157 -367 -299
-66 -82 -93 -101 -256 -170 -266 -114 -337 -161 -382 -252 l-22 -45 1 -1565
c0 -861 4 -1632 7 -1713 7 -158 17 -194 62 -223 50 -33 53 -32 625 231 140 65
352 157 470 205 189 77 217 86 235 74 11 -7 86 -42 168 -78 81 -36 241 -109
355 -162 318 -148 580 -263 640 -280 35 -10 74 -14 106 -11 59 6 231 78 618
260 145 68 345 161 446 207 l183 82 57 -25 c109 -49 367 -164 412 -184 25 -12
146 -67 270 -123 430 -195 501 -221 541 -199 30 15 42 28 60 59 12 21 14 288
17 1736 l3 1712 -25 51 c-51 100 -132 157 -342 240 -182 73 -223 100 -307 203
-144 179 -352 309 -561 349 -80 15 -233 13 -311 -5 -245 -57 -453 -192 -600
-390 -86 -115 -90 -118 -336 -216 -134 -54 -158 -61 -184 -52 -45 15 -356 146
-383 160 -12 7 -47 50 -77 96 -189 287 -519 449 -840 414z"/>
</g>
</svg>
